<?xml version="1.0" standalone="no"?>
<!DOCTYPE svg PUBLIC "-//W3C//DTD SVG 20010904//EN"
 "http://www.w3.org/TR/2001/REC-SVG-20010904/DTD/svg10.dtd">
<svg version="1.0" xmlns="http://www.w3.org/2000/svg"
 width="512.000000pt" height="512.000000pt" viewBox="0 0 512.000000 512.000000"
 preserveAspectRatio="xMidYMid meet">

<g transform="translate(0.000000,512.000000) scale(0.100000,-0.100000)"
fill="#000000" stroke="none">
<path d="M1 4758 l0 -363 19 72 c53 204 202 354 415 420 57 17 149 18 2125 18
l2065 0 85 -28 c199 -65 352 -230 394 -427 13 -60 14 -39 15 303 l1 367 -2560
0 -2560 0 1 -362z"/>
<path d="M545 4583 c-61 -14 -93 -30 -133 -66 -72 -67 -86 -103 -90 -239 l-4
-118 2242 0 2242 0 -4 118 c-3 95 -8 125 -25 157 -28 52 -88 109 -138 132 -38
17 -138 18 -2055 19 -1108 1 -2024 0 -2035 -3z"/>
<path d="M322 2283 l3 -1558 22 -40 c28 -54 100 -119 149 -136 58 -21 4070
-21 4128 0 49 17 121 82 149 136 l22 40 3 1558 2 1557 -2240 0 -2240 0 2
-1557z m1163 696 c34 -9 97 -68 407 -377 203 -202 375 -381 383 -398 19 -40
19 -107 1 -142 -8 -15 -183 -194 -388 -399 -403 -402 -395 -395 -485 -378 -49
9 -109 69 -118 118 -17 89 -18 88 311 417 167 168 304 310 304 315 0 6 -133
143 -296 305 -163 162 -302 309 -310 327 -19 44 -18 87 5 132 24 45 39 59 88
77 47 16 49 16 98 3z m2281 -1405 c53 -39 69 -71 69 -134 0 -63 -16 -95 -69
-134 -27 -20 -40 -21 -544 -24 -345 -2 -529 0 -554 8 -101 29 -140 168 -71
251 51 60 39 59 615 56 514 -2 527 -2 554 -23z"/>
<path d="M5110 703 c-1 -44 -46 -161 -86 -222 -79 -118 -196 -204 -339 -248
-57 -17 -148 -18 -2125 -18 -1976 0 -2068 1 -2125 18 -131 41 -242 116 -313
212 -58 79 -80 123 -102 208 l-19 72 0 -362 -1 -363 2560 0 2560 0 0 365 c0
201 -2 365 -5 365 -3 0 -5 -12 -5 -27z"/>
</g>
</svg>
