<?xml version="1.0" standalone="no"?>
<!DOCTYPE svg PUBLIC "-//W3C//DTD SVG 20010904//EN"
 "http://www.w3.org/TR/2001/REC-SVG-20010904/DTD/svg10.dtd">
<svg version="1.0" xmlns="http://www.w3.org/2000/svg"
 width="512.000000pt" height="512.000000pt" viewBox="0 0 512.000000 512.000000"
 preserveAspectRatio="xMidYMid meet">
<metadata>
Created by potrace 1.16, written by Peter Selinger 2001-2019
</metadata>
<g transform="translate(0.000000,512.000000) scale(0.100000,-0.100000)"
fill="#000000" stroke="none">
<path d="M0 2560 l0 -2560 2560 0 2560 0 0 2560 0 2560 -2560 0 -2560 0 0
-2560z m4091 2401 c17 -21 19 -41 19 -212 l0 -189 194 0 c190 0 195 -1 210
-22 14 -20 16 -244 16 -2189 0 -2119 0 -2167 -19 -2190 l-19 -24 -1722 0
-1722 0 -19 24 c-17 21 -19 41 -19 212 l0 189 -194 0 c-190 0 -195 1 -210 22
-14 20 -16 244 -16 2186 0 1512 3 2169 11 2183 6 11 20 24 32 29 13 5 758 8
1730 7 l1709 -2 19 -24z"/>
<path d="M740 2770 l0 -2070 1610 0 1610 0 0 2070 0 2070 -1610 0 -1610 0 0
-2070z m2782 1353 c23 -20 24 -80 1 -105 -15 -17 -65 -18 -1173 -18 -1147 0
-1157 0 -1175 20 -10 11 -18 34 -18 50 0 16 8 39 18 50 18 20 28 20 1173 20
1061 0 1157 -1 1174 -17z m-19 -854 c30 -16 37 -28 37 -66 0 -20 -8 -41 -20
-53 -20 -20 -33 -20 -1169 -20 -1080 0 -1150 1 -1169 18 -36 30 -29 106 11
122 35 14 2283 13 2310 -1z m15 -875 c33 -23 31 -86 -4 -113 -27 -21 -29 -21
-1160 -21 -826 0 -1140 3 -1158 11 -48 22 -54 102 -9 128 12 7 382 10 1163 11
1021 0 1148 -2 1168 -16z m1 -868 c14 -13 21 -31 21 -57 0 -74 90 -69 -1196
-69 -1084 0 -1152 1 -1166 18 -23 27 -28 49 -17 81 6 18 21 34 37 40 17 6 438
9 1163 8 1103 -2 1138 -3 1158 -21z"/>
<path d="M4110 2510 c0 -1897 0 -1910 -20 -1930 -20 -20 -33 -20 -1475 -20
l-1455 0 0 -140 0 -140 1610 0 1610 0 0 2070 0 2070 -135 0 -135 0 0 -1910z"/>
</g>
</svg>
