<?xml version="1.0" standalone="no"?>
<!DOCTYPE svg PUBLIC "-//W3C//DTD SVG 20010904//EN"
 "http://www.w3.org/TR/2001/REC-SVG-20010904/DTD/svg10.dtd">
<svg version="1.0" xmlns="http://www.w3.org/2000/svg"
 width="512.000000pt" height="512.000000pt" viewBox="0 0 512.000000 512.000000"
 preserveAspectRatio="xMidYMid meet">
<metadata>
Created by potrace 1.16, written by Peter Selinger 2001-2019
</metadata>
<g transform="translate(0.000000,512.000000) scale(0.100000,-0.100000)"
fill="#000000" stroke="none">
<path d="M0 2560 l0 -2560 2560 0 2560 0 0 2560 0 2560 -2560 0 -2560 0 0
-2560z m1706 2132 c169 -59 287 -177 346 -346 l28 -81 0 -385 0 -385 -28 -81
c-60 -170 -183 -291 -357 -349 l-76 -26 -397 3 -397 3 -70 29 c-163 68 -271
180 -327 340 l-28 81 0 385 0 385 28 81 c60 170 176 286 346 346 l81 28 385 0
385 0 81 -28z m2640 0 c169 -59 287 -177 346 -346 l28 -81 0 -385 0 -385 -28
-81 c-60 -170 -183 -291 -357 -349 l-76 -26 -397 3 -397 3 -70 29 c-163 68
-271 180 -327 340 l-28 81 0 385 0 385 28 81 c60 170 176 286 346 346 l81 28
385 0 385 0 81 -28z m-2640 -2640 c169 -59 287 -177 346 -346 l28 -81 0 -385
0 -385 -28 -81 c-60 -170 -183 -291 -357 -349 l-76 -26 -397 3 -397 3 -70 29
c-163 68 -271 180 -327 340 l-28 81 0 385 0 385 28 81 c60 170 176 286 346
346 l81 28 385 0 385 0 81 -28z m2640 0 c169 -59 287 -177 346 -346 l28 -81 0
-385 0 -385 -28 -81 c-60 -170 -183 -291 -357 -349 l-76 -26 -397 3 -397 3
-70 29 c-163 68 -271 180 -327 340 l-28 81 0 385 0 385 28 81 c60 170 176 286
346 346 l81 28 385 0 385 0 81 -28z"/>
<path d="M934 4226 c-50 -22 -54 -50 -54 -348 0 -302 4 -327 60 -347 45 -15
555 -15 600 0 56 20 60 44 60 349 0 305 -4 329 -60 349 -50 17 -565 14 -606
-3z"/>
<path d="M3574 4226 c-50 -22 -54 -50 -54 -348 0 -302 4 -327 60 -347 45 -15
555 -15 600 0 56 20 60 44 60 349 0 305 -4 329 -60 349 -50 17 -565 14 -606
-3z"/>
<path d="M934 1586 c-50 -22 -54 -50 -54 -348 0 -302 4 -327 60 -347 45 -15
555 -15 600 0 56 20 60 44 60 349 0 305 -4 329 -60 349 -50 17 -565 14 -606
-3z"/>
<path d="M3574 1586 c-50 -22 -54 -50 -54 -348 0 -302 4 -327 60 -347 45 -15
555 -15 600 0 56 20 60 44 60 349 0 305 -4 329 -60 349 -50 17 -565 14 -606
-3z"/>
</g>
</svg>
