<?xml version="1.0" standalone="no"?>
<!DOCTYPE svg PUBLIC "-//W3C//DTD SVG 20010904//EN"
 "http://www.w3.org/TR/2001/REC-SVG-20010904/DTD/svg10.dtd">
<svg version="1.0" xmlns="http://www.w3.org/2000/svg"
 width="512.000000pt" height="512.000000pt" viewBox="0 0 512.000000 512.000000"
 preserveAspectRatio="xMidYMid meet">
<metadata>
Created by potrace 1.16, written by Peter Selinger 2001-2019
</metadata>
<g transform="translate(0.000000,512.000000) scale(0.100000,-0.100000)"
fill="#000000" stroke="none">
<path d="M0 2560 l0 -2560 158 0 157 0 -40 24 c-23 14 -51 43 -65 68 l-25 43
0 1082 0 1082 22 23 c28 28 84 29 113 3 20 -18 20 -22 20 -1077 0 -1045 0
-1058 20 -1078 20 -20 33 -20 1900 -20 1867 0 1880 0 1900 20 20 20 20 33 20
842 l-1 823 -23 -45 c-13 -25 -79 -162 -147 -305 -67 -143 -127 -267 -133
-276 -6 -9 -150 -145 -320 -302 -336 -312 -350 -322 -419 -293 -67 27 -70 50
-52 314 8 124 15 230 15 234 0 4 -517 8 -1149 8 -1147 0 -1148 0 -1175 21 -33
26 -37 88 -6 119 20 20 33 20 1179 20 l1158 0 7 52 c3 29 6 78 6 108 0 40 8
72 29 116 16 33 32 71 35 82 l7 22 -1210 0 c-1198 0 -1211 0 -1231 20 -26 26
-26 80 -1 111 l19 24 1252 3 1251 2 88 183 88 182 -1085 5 -1084 5 -19 24
c-26 32 -24 77 6 106 l24 25 1119 0 1118 0 90 191 c49 105 98 198 109 205 48
34 125 -2 125 -59 0 -20 -94 -228 -265 -588 -146 -307 -265 -562 -265 -567 0
-8 404 -205 438 -214 16 -4 836 1712 824 1723 -9 9 -432 209 -441 209 -5 0
-42 -72 -84 -160 -44 -91 -85 -164 -96 -170 -51 -27 -121 11 -121 66 0 23 309
693 332 718 4 6 8 106 8 223 l0 213 -1920 0 -1920 0 0 -809 0 -810 -26 -20
c-35 -28 -67 -26 -101 3 l-28 24 0 1204 0 1203 25 43 c14 25 42 54 65 68 l40
24 -157 0 -158 0 0 -2560z m1295 1121 c43 -19 100 -78 116 -118 12 -32 12
-159 -1 -183 -8 -14 -4 -21 16 -35 14 -9 36 -40 50 -68 44 -96 27 -212 -42
-281 -50 -50 -86 -59 -243 -64 -161 -5 -209 4 -240 45 -20 25 -21 38 -21 345
l0 320 29 29 29 29 134 0 c107 0 141 -4 173 -19z m495 -1 c19 -19 20 -33 20
-305 l0 -285 164 0 165 0 20 -26 c28 -35 26 -67 -3 -101 l-24 -28 -216 0
c-211 0 -216 0 -238 23 -23 22 -23 25 -26 330 -2 169 0 322 3 340 3 18 15 42
26 53 26 26 83 25 109 -1z m905 -4 c57 -26 106 -73 132 -125 15 -30 19 -67 21
-223 3 -167 1 -192 -16 -230 -28 -64 -66 -104 -129 -134 -45 -23 -69 -28 -132
-28 -95 0 -143 16 -199 67 -79 74 -86 97 -90 294 -4 198 5 243 64 312 58 68
111 89 224 90 59 1 86 -4 125 -23z m800 -1 c27 -26 31 -51 14 -88 -18 -39 -50
-47 -196 -47 -113 0 -140 -3 -155 -17 -16 -14 -18 -35 -18 -209 0 -231 -4
-224 122 -224 78 0 126 11 140 33 11 18 10 115 -2 122 -6 4 -35 9 -65 12 -64
7 -89 29 -89 78 0 58 25 75 111 75 158 0 220 -74 211 -251 -4 -79 -8 -94 -34
-131 -17 -25 -49 -52 -79 -67 -46 -24 -59 -26 -190 -26 -152 0 -174 6 -227 62
-53 55 -58 84 -58 310 0 114 5 225 11 246 13 49 63 105 114 128 33 16 67 19
203 19 160 0 163 0 187 -25z"/>
<path d="M1090 3470 l0 -70 68 0 c80 0 102 15 102 72 0 52 -24 68 -103 68
l-67 0 0 -70z"/>
<path d="M1090 3165 l0 -75 99 0 c84 0 102 3 125 21 33 26 36 79 6 109 -17 17
-33 20 -125 20 l-105 0 0 -75z"/>
<path d="M2488 3520 c-43 -33 -50 -66 -46 -218 3 -133 4 -142 27 -166 52 -56
157 -55 200 1 19 23 21 39 21 180 l0 155 -34 34 c-30 30 -40 34 -89 34 -39 0
-61 -6 -79 -20z"/>
<path d="M4245 5096 c23 -14 51 -43 65 -68 l25 -43 5 -550 5 -550 90 0 90 0
136 -66 c217 -106 264 -164 264 -324 l0 -90 -290 -605 -290 -605 -5 -1030 -5
-1030 -25 -43 c-14 -25 -42 -54 -65 -68 l-40 -24 458 0 457 0 0 2560 0 2560
-457 0 -458 0 40 -24z"/>
<path d="M369 4963 c-10 -2 -20 -14 -23 -26 -3 -12 -6 -149 -6 -304 l0 -283
1920 0 1921 0 -3 299 c-2 165 -7 303 -11 308 -9 8 -3768 15 -3798 6z m2145
-254 c36 -17 52 -69 32 -107 -8 -16 -23 -32 -31 -36 -9 -3 -397 -6 -863 -6
l-846 0 -23 22 c-33 31 -32 90 3 117 27 21 32 21 865 21 609 0 845 -3 863 -11z
m473 -4 c29 -21 38 -66 19 -103 -37 -72 -146 -46 -146 36 0 68 71 106 127 67z
m387 -6 c56 -44 20 -139 -54 -139 -46 0 -75 31 -75 80 0 32 6 47 24 61 30 25
72 24 105 -2z m369 10 c47 -21 60 -80 26 -123 -43 -55 -139 -24 -139 45 0 69
53 105 113 78z"/>
<path d="M4365 3721 c-11 -5 -28 -17 -37 -28 -28 -30 -121 -234 -112 -243 11
-9 433 -210 443 -210 4 0 30 51 59 113 87 186 74 219 -118 314 -127 63 -182
75 -235 54z"/>
<path d="M3276 1388 c-3 -13 -7 -65 -10 -116 l-5 -93 116 -55 115 -54 84 77
c46 43 84 79 84 81 0 3 -370 182 -376 182 -2 0 -6 -10 -8 -22z"/>
</g>
</svg>
