<?xml version="1.0" standalone="no"?>
<!DOCTYPE svg PUBLIC "-//W3C//DTD SVG 20010904//EN"
 "http://www.w3.org/TR/2001/REC-SVG-20010904/DTD/svg10.dtd">
<svg version="1.0" xmlns="http://www.w3.org/2000/svg"
 width="512.000000pt" height="512.000000pt" viewBox="0 0 512.000000 512.000000"
 preserveAspectRatio="xMidYMid meet">
<metadata>
Created by potrace 1.16, written by Peter Selinger 2001-2019
</metadata>
<g transform="translate(0.000000,512.000000) scale(0.100000,-0.100000)"
fill="#000000" stroke="none">
<path d="M0 2560 l0 -2560 2560 0 2560 0 0 2560 0 2560 -2560 0 -2560 0 0
-2560z m2776 2225 c480 -84 865 -460 963 -942 26 -126 28 -341 6 -462 -56
-293 -214 -552 -449 -737 l-39 -30 79 -28 c211 -74 479 -230 674 -394 484
-405 789 -1041 790 -1647 0 -135 -12 -168 -72 -205 -33 -20 -55 -20 -2168 -20
-2113 0 -2135 0 -2168 20 -60 37 -72 70 -72 205 1 606 306 1242 790 1647 195
164 463 320 674 394 l78 27 -43 36 c-235 192 -390 448 -444 732 -22 121 -20
336 6 462 98 481 479 854 963 942 101 19 325 18 432 0z"/>
<path d="M2480 4469 c-305 -26 -577 -219 -710 -501 -81 -173 -103 -385 -60
-568 61 -252 241 -475 476 -586 434 -207 948 -25 1159 409 61 126 85 233 85
377 0 148 -25 252 -90 385 -88 179 -215 306 -395 395 -152 75 -298 103 -465
89z"/>
<path d="M2435 2389 c-731 -44 -1387 -525 -1658 -1215 -43 -110 -92 -291 -107
-394 -6 -41 -13 -90 -16 -107 l-5 -33 1911 0 1911 0 -5 33 c-3 17 -10 66 -16
107 -22 157 -101 403 -177 553 -206 408 -572 747 -989 918 -186 76 -399 126
-569 135 -55 3 -113 6 -130 7 -16 2 -84 0 -150 -4z"/>
</g>
</svg>
